<?xml version="1.0" encoding="utf-8"?>
<svg xmlns="http://www.w3.org/2000/svg" viewBox="0 0 100 100" width="400" height="400">
  <path d="M34 12 A 1.0001 1.0001 0 0 0 33 13.158203L33 42L31 42C30.341747 42 29.675221 42.044102 29.009766 42.113281L20.253906 34.255859 A 1.0001 1.0001 0 0 0 19.585938 34L15.386719 34 A 1.0001 1.0001 0 0 0 14.515625 35.490234L19.644531 44.630859C18.996218 44.899002 18.580078 45.091797 18.580078 45.091797 A 1.0005834 1.0005834 0 0 0 19.419922 46.908203C19.419922 46.908203 25.863636 44 31 44L65.525391 44C73.112067 44 78.574887 45.712019 82.136719 47.404297C84.460978 48.508586 85.677282 49.391498 86.429688 50.001953C85.677289 50.612055 84.460998 51.493988 82.136719 52.597656C78.574856 54.288982 73.112153 56 65.525391 56L31 56C25.863636 56 19.419922 53.091797 19.419922 53.091797 A 1.0005834 1.0005834 0 0 0 18.580078 54.908203C18.580078 54.908203 18.996218 55.100998 19.644531 55.369141L14.515625 64.509766 A 1.0001 1.0001 0 0 0 15.386719 66L19.585938 66 A 1.0001 1.0001 0 0 0 20.253906 65.744141L29.009766 57.886719C29.675221 57.955898 30.341747 58 31 58L33 58L33 86.832031 A 1.0001 1.0001 0 0 0 33.929688 87.998047 A 1.0001 1.0001 0 0 0 34 88L38.519531 88L45 88 A 1.0001 1.0001 0 1 0 45 86L40.4375 86L45.322266 79L53.552734 79C54.338979 79 55.25851 78.657252 56.203125 78.240234C57.14774 77.823217 58.087361 77.315498 58.751953 76.929688 A 0.50005 0.50005 0 0 0 58.753906 76.066406C58.097133 75.680127 57.166972 75.174284 56.224609 74.757812C55.282246 74.341342 54.354323 74 53.552734 74L48.810547 74L53.695312 67L61 67 A 1.0001 1.0001 0 1 0 61 65L55.089844 65L59.974609 58L65.525391 58C73.413628 58 79.187254 56.211971 82.994141 54.404297C86.801028 52.596623 88.707031 50.708984 88.707031 50.708984 A 1.0001 1.0001 0 0 0 88.707031 49.294922C88.707031 49.294922 86.801059 47.406378 82.994141 45.597656C79.187222 43.788934 73.413715 42 65.525391 42L59.974609 42L55.089844 35L61 35 A 1.0001 1.0001 0 1 0 61 33L53.695312 33L48.810547 26L53.552734 26C54.338979 26 55.25851 25.657252 56.203125 25.240234C57.14774 24.823217 58.087361 24.315498 58.751953 23.929688 A 0.50005 0.50005 0 0 0 58.753906 23.066406C58.097133 22.680127 57.166972 22.174283 56.224609 21.757812C55.282246 21.341342 54.354323 21 53.552734 21L45.322266 21L40.4375 14L47 14 A 1.0001 1.0001 0 1 0 47 12L34 12 z M 35 14L37.998047 14L52.205078 34.359375 A 1.0001 1.0001 0 0 0 52.476562 34.75L57.535156 42L35 42L35 14 z M 46.019531 22L53.552734 22C54.031146 22 54.930426 22.278596 55.820312 22.671875C56.404083 22.929868 56.897131 23.215086 57.412109 23.496094C56.889302 23.778778 56.38783 24.066146 55.798828 24.326172C54.904693 24.720904 54.00349 25 53.552734 25L48.113281 25L46.019531 22 z M 17.095703 36L19.203125 36L26.460938 42.511719C24.604227 42.894125 22.902819 43.4271 21.537109 43.914062L17.095703 36 z M 60.5 47C57.388889 47 55.277344 48.052734 55.277344 48.052734 A 0.50005 0.50005 0 0 0 55 48.5L55 51.5 A 0.50005 0.50005 0 0 0 55.277344 51.947266C55.277344 51.947266 57.388889 53 60.5 53L67.25 53C72.65873 53 75.820312 50.384766 75.820312 50.384766 A 0.50005 0.50005 0 0 0 75.820312 49.615234C75.820312 49.615234 72.65873 47 67.25 47L60.5 47 z M 60.5 48L67 48L67 52L60.5 52C60.324581 52 60.165999 51.990319 60 51.984375L60 48.015625C60.165999 48.009681 60.324581 48 60.5 48 z M 68 48.03125C71.770685 48.192808 73.809828 49.492929 74.517578 50C73.809828 50.507071 71.770685 51.807192 68 51.96875L68 48.03125 z M 59 48.085938L59 51.914062C57.315003 51.727609 56.275048 51.280818 56 51.154297L56 48.845703C56.275048 48.719182 57.315003 48.272391 59 48.085938 z M 12 49 A 1.0001 1.0001 0 1 0 12 51L27 51 A 1.0001 1.0001 0 1 0 27 49L12 49 z M 21.537109 56.085938C22.902819 56.5729 24.604227 57.105875 26.460938 57.488281L19.203125 64L17.095703 64L21.537109 56.085938 z M 35 58L57.535156 58L52.427734 65.320312 A 1.0001 1.0001 0 0 0 52.267578 65.550781L37.998047 86L35 86L35 58 z M 48.113281 75L53.552734 75C54.031146 75 54.930426 75.278596 55.820312 75.671875C56.404083 75.929868 56.897131 76.215086 57.412109 76.496094C56.889302 76.778778 56.38783 77.066146 55.798828 77.326172C54.904693 77.720904 54.00349 78 53.552734 78L46.019531 78L48.113281 75 z" fill="#FFFFFF" />
</svg>