<?xml version="1.0" encoding="utf-8"?>
<svg xmlns="http://www.w3.org/2000/svg" viewBox="0 0 80 80" width="480" height="480">
  <path d="M40 15C39.59375 15 39.324219 15.210938 39.1875 15.355469C39.046875 15.5 38.980469 15.621094 38.917969 15.734375C38.792969 15.96875 38.710938 16.203125 38.625 16.480469C38.457031 17.039063 38.292969 17.761719 38.125 18.621094C37.792969 20.34375 37.449219 22.605469 37.136719 24.863281C36.523438 29.273438 36.042969 33.550781 36.019531 33.753906C34.695313 34.273438 33.496094 35.042969 32.476563 36L24 36C23.640625 35.996094 23.304688 36.183594 23.121094 36.496094C22.941406 36.808594 22.941406 37.191406 23.121094 37.503906C23.304688 37.816406 23.640625 38.003906 24 38L30.796875 38C29.667969 39.722656 29.003906 41.777344 29 43.984375C22.785156 43.917969 16.878906 43.21875 12.203125 42.511719C9.738281 42.140625 7.617188 41.765625 5.960938 41.484375C4.304688 41.199219 3.195313 41 2.414063 41C1.019531 41 0 42.070313 0 43.214844C0 44.132813 0.519531 44.832031 1.164063 45.265625C1.964844 45.804688 5.75 48.21875 11.613281 50.375C11.226563 51.167969 11 52.058594 11 53C11 56.300781 13.699219 59 17 59C20.195313 59 22.816406 56.472656 22.984375 53.320313C25.59375 53.726563 28.371094 53.980469 31.308594 53.996094C32.957031 55.832031 35.34375 57 38 57L42 57C44.65625 57 47.042969 55.832031 48.691406 53.996094C51.628906 53.980469 54.40625 53.726563 57.015625 53.320313C57.183594 56.472656 59.804688 59 63 59C66.300781 59 69 56.300781 69 53C69 52.058594 68.773438 51.167969 68.386719 50.375C74.25 48.21875 78.035156 45.804688 78.839844 45.265625C79.480469 44.832031 80 44.132813 80 43.214844C80 42.070313 78.980469 41 77.589844 41C76.804688 41 75.695313 41.199219 74.039063 41.484375C72.382813 41.765625 70.261719 42.140625 67.796875 42.511719C63.121094 43.21875 57.214844 43.917969 51 43.984375C50.996094 41.777344 50.332031 39.722656 49.203125 38L56 38C56.359375 38.003906 56.695313 37.816406 56.878906 37.503906C57.058594 37.191406 57.058594 36.808594 56.878906 36.496094C56.695313 36.183594 56.359375 35.996094 56 36L47.527344 36C46.503906 35.042969 45.304688 34.273438 43.980469 33.753906C43.957031 33.550781 43.476563 29.273438 42.863281 24.863281C42.550781 22.605469 42.207031 20.34375 41.875 18.621094C41.707031 17.761719 41.542969 17.039063 41.375 16.480469C41.289063 16.203125 41.207031 15.96875 41.082031 15.734375C41.019531 15.621094 40.953125 15.5 40.8125 15.355469C40.675781 15.210938 40.40625 15 40 15 Z M 40 19.578125C40.292969 21.171875 40.601563 23.105469 40.886719 25.136719C41.402344 28.871094 41.765625 32.03125 41.894531 33.175781C41.277344 33.066406 40.648438 33 40 33C39.351563 33 38.722656 33.066406 38.105469 33.175781C38.234375 32.03125 38.597656 28.871094 39.113281 25.136719C39.398438 23.105469 39.707031 21.171875 40 19.578125 Z M 40 35C44.984375 35 49 39.015625 49 44L49 44.832031C48.980469 44.941406 48.980469 45.050781 49 45.15625L49 48C49 51.878906 45.878906 55 42 55L38 55C34.121094 55 31 51.878906 31 48L31 45.167969C31.019531 45.058594 31.019531 44.949219 31 44.84375L31 44C31 39.015625 35.015625 35 40 35 Z M 31 47C31 47.550781 31.449219 48 32 48C32.550781 48 33 47.550781 33 47C33 46.449219 32.550781 46 32 46C31.449219 46 31 46.449219 31 47 Z M 49 47C49 46.449219 48.550781 46 48 46C47.449219 46 47 46.449219 47 47C47 47.550781 47.449219 48 48 48C48.550781 48 49 47.550781 49 47 Z M 20 36C19.449219 36 19 36.449219 19 37C19 37.550781 19.449219 38 20 38C20.550781 38 21 37.550781 21 37C21 36.449219 20.550781 36 20 36 Z M 60 36C59.449219 36 59 36.449219 59 37C59 37.550781 59.449219 38 60 38C60.550781 38 61 37.550781 61 37C61 36.449219 60.550781 36 60 36 Z M 36 40C34.34375 40 33 41.34375 33 43L39 43L39 40 Z M 41 40L41 43L47 43C47 41.34375 45.65625 40 44 40 Z M 2.414063 43C2.746094 43 3.980469 43.175781 5.625 43.453125C7.273438 43.734375 9.410156 44.109375 11.902344 44.488281C16.632813 45.203125 22.640625 45.917969 29 45.984375L29 48C29 49.421875 29.339844 50.761719 29.933594 51.960938C27.40625 51.882813 25.003906 51.632813 22.738281 51.257813C21.988281 48.800781 19.695313 47 17 47C15.386719 47 13.917969 47.648438 12.835938 48.691406C6.855469 46.558594 3 44.089844 2.277344 43.605469C2.113281 43.496094 2 43.265625 2 43.214844C2 43.230469 1.960938 43 2.414063 43 Z M 77.589844 43C78.039063 43 78 43.230469 78 43.214844C78 43.265625 77.886719 43.496094 77.722656 43.605469C77 44.089844 73.144531 46.558594 67.164063 48.691406C66.082031 47.648438 64.613281 47 63 47C60.304688 47 58.011719 48.800781 57.261719 51.257813C54.996094 51.632813 52.59375 51.882813 50.066406 51.960938C50.660156 50.761719 51 49.421875 51 48L51 45.984375C57.359375 45.917969 63.367188 45.203125 68.097656 44.488281C70.589844 44.109375 72.726563 43.734375 74.375 43.453125C76.019531 43.175781 77.253906 43 77.589844 43 Z M 36 47C35.449219 47 35 47.449219 35 48C35 48.550781 35.449219 49 36 49C36.550781 49 37 48.550781 37 48C37 47.449219 36.550781 47 36 47 Z M 44 47C43.449219 47 43 47.449219 43 48C43 48.550781 43.449219 49 44 49C44.550781 49 45 48.550781 45 48C45 47.449219 44.550781 47 44 47 Z M 40 48C39.449219 48 39 48.449219 39 49C39 49.550781 39.449219 50 40 50C40.550781 50 41 49.550781 41 49C41 48.449219 40.550781 48 40 48 Z M 17 49C18.925781 49 20.511719 50.339844 20.90625 52.140625C20.90625 52.230469 20.917969 52.320313 20.941406 52.40625C20.96875 52.601563 21 52.796875 21 53C21 55.222656 19.222656 57 17 57C14.777344 57 13 55.222656 13 53C13 52.136719 13.273438 51.347656 13.730469 50.699219C13.882813 50.59375 14 50.449219 14.074219 50.28125C14.804688 49.496094 15.835938 49 17 49 Z M 63 49C64.164063 49 65.195313 49.496094 65.925781 50.28125C66 50.449219 66.121094 50.589844 66.269531 50.695313C66.726563 51.347656 67 52.136719 67 53C67 55.222656 65.222656 57 63 57C60.777344 57 59 55.222656 59 53C59 52.796875 59.03125 52.605469 59.058594 52.410156C59.082031 52.324219 59.09375 52.230469 59.09375 52.140625C59.488281 50.339844 61.074219 49 63 49 Z M 17 51C15.894531 51 15 51.894531 15 53C15 54.105469 15.894531 55 17 55C18.105469 55 19 54.105469 19 53C19 51.894531 18.105469 51 17 51 Z M 63 51C61.894531 51 61 51.894531 61 53C61 54.105469 61.894531 55 63 55C64.105469 55 65 54.105469 65 53C65 51.894531 64.105469 51 63 51Z" fill="#FFFFFF" />
</svg>