<?xml version="1.0" encoding="utf-8"?>
<svg xmlns="http://www.w3.org/2000/svg" viewBox="0 0 100 100" width="500" height="500">
  <circle cx="13" cy="29" r="2" fill="#78a0cf" />
  <circle cx="77" cy="13" r="1" fill="#f1bc19" />
  <circle cx="50" cy="50" r="37" fill="#cee1f4" />
  <circle cx="83" cy="15" r="4" fill="#f1bc19" />
  <circle cx="87" cy="24" r="2" fill="#78a0cf" />
  <circle cx="81" cy="76" r="2" fill="#fbcd59" />
  <circle cx="15" cy="63" r="4" fill="#fbcd59" />
  <circle cx="25" cy="87" r="2" fill="#78a0cf" />
  <circle cx="18.5" cy="53.5" r="2.5" fill="#fff" />
  <circle cx="21" cy="67" r="1" fill="#f1bc19" />
  <circle cx="80" cy="34" r="1" fill="#fff" />
  <path fill="#6f913d" d="M55.5,67.5h-11v2h11c0.552,0,1-0.448,1-1l0,0C56.5,67.948,56.052,67.5,55.5,67.5z" />
  <path fill="#472b29" d="M55.5,70h-11c-0.276,0-0.5-0.224-0.5-0.5v-2c0-0.276,0.224-0.5,0.5-0.5h11 c0.827,0,1.5,0.673,1.5,1.5S56.327,70,55.5,70z M45,69h10.5c0.275,0,0.5-0.224,0.5-0.5S55.775,68,55.5,68H45V69z" />
  <path fill="#6f913d" d="M58.5,60.5h-11v2h11c0.552,0,1-0.448,1-1l0,0C59.5,60.948,59.052,60.5,58.5,60.5z" />
  <path fill="#472b29" d="M58.5,63h-11c-0.276,0-0.5-0.224-0.5-0.5v-2c0-0.276,0.224-0.5,0.5-0.5h11 c0.827,0,1.5,0.673,1.5,1.5S59.327,63,58.5,63z M48,62h10.5c0.275,0,0.5-0.224,0.5-0.5S58.775,61,58.5,61H48V62z" />
  <polygon fill="#88ae45" points="27.7,63.3 27.7,53.7 35.913,53.7 31.549,63.3" />
  <path fill="#472b29" d="M34.826,54.4l-3.727,8.2H28.4v-8.2H34.826 M37,53H27v11h5L37,53L37,53z" />
  <polygon fill="#88ae45" points="40.7,76.3 40.7,54.7 59.708,54.7 45.621,76.3" />
  <path fill="#472b29" d="M58.416,55.4L45.242,75.6H41.4V55.4H58.416 M61,54H40v23h6L61,54L61,54z" />
  <path fill="#88ae45" d="M51.5,74.5h-11v2h11c0.552,0,1-0.448,1-1l0,0C52.5,74.948,52.052,74.5,51.5,74.5z" />
  <path fill="#472b29" d="M51.5,77h-11c-0.276,0-0.5-0.224-0.5-0.5v-2c0-0.276,0.224-0.5,0.5-0.5h11 c0.827,0,1.5,0.673,1.5,1.5S52.327,77,51.5,77z M41,76h10.5c0.275,0,0.5-0.224,0.5-0.5S51.775,75,51.5,75H41V76z" />
  <g>
    <path fill="#6f913d" d="M55.5,33.5h-11v-2h11c0.552,0,1,0.448,1,1l0,0C56.5,33.052,56.052,33.5,55.5,33.5z" />
    <path fill="#472b29" d="M55.5,34h-11c-0.276,0-0.5-0.224-0.5-0.5v-2c0-0.276,0.224-0.5,0.5-0.5h11 c0.827,0,1.5,0.673,1.5,1.5S56.327,34,55.5,34z M45,33h10.5c0.275,0,0.5-0.224,0.5-0.5S55.775,32,55.5,32H45V33z" />
  </g>
  <g>
    <path fill="#6f913d" d="M58.5,40.5h-11v-2h11c0.552,0,1,0.448,1,1l0,0C59.5,40.052,59.052,40.5,58.5,40.5z" />
    <path fill="#472b29" d="M58.5,41h-11c-0.276,0-0.5-0.224-0.5-0.5v-2c0-0.276,0.224-0.5,0.5-0.5h11 c0.827,0,1.5,0.673,1.5,1.5S59.327,41,58.5,41z M48,40h10.5c0.275,0,0.5-0.224,0.5-0.5S58.775,39,58.5,39H48V40z" />
  </g>
  <g>
    <polygon fill="#88ae45" points="27.7,47.3 27.7,37.7 31.549,37.7 35.913,47.3" />
    <path fill="#472b29" d="M31.099,38.4l3.727,8.2H28.4v-8.2H31.099 M32,37h-5v11h10L32,37L32,37z" />
  </g>
  <g>
    <polygon fill="#88ae45" points="40.7,46.3 40.7,24.7 45.621,24.7 59.708,46.3" />
    <path fill="#472b29" d="M45.242,25.4l13.174,20.2H41.4V25.4H45.242 M46,24h-6v23h21L46,24L46,24z" />
  </g>
  <g>
    <path fill="#d1dc82" d="M64.015,55.3H37.667L28.7,54.369V46.63l8.791-0.934L64,45.7c5.598,0,10.25,1.732,16.3,4.733v0.168 c-5.178,3.036-10.771,4.704-15.793,4.704C64.343,55.305,64.179,55.304,64.015,55.3z" />
    <path fill="#472b29" d="M64,46.4c5.142,0,9.496,1.512,14.96,4.156c-4.789,2.619-9.871,4.049-14.453,4.049 c-0.159,0-0.318-0.002-0.507-0.005H37.739L29.4,53.737v-6.478l8.091-0.859H64 M64,45H37.417L28,46v9l9.667,1H64 c0.169,0.003,0.337,0.005,0.507,0.005c5.816,0,11.635-2.09,16.493-5.005v-1C75,47,70,45,64,45L64,45z" />
  </g>
  <g>
    <path fill="#88ae45" d="M51.5,26.5h-11v-2h11c0.552,0,1,0.448,1,1v0C52.5,26.052,52.052,26.5,51.5,26.5z" />
    <path fill="#472b29" d="M51.5,27h-11c-0.276,0-0.5-0.224-0.5-0.5v-2c0-0.276,0.224-0.5,0.5-0.5h11 c0.827,0,1.5,0.673,1.5,1.5S52.327,27,51.5,27z M41,26h10.5c0.275,0,0.5-0.224,0.5-0.5S51.775,25,51.5,25H41V26z" />
  </g>
  <g>
    <path fill="#78a0cf" d="M64.5,52.5h-6c-2,0-3-0.895-3-2v0c0-1.105,1-2,3-2h6c2,0,3,0.895,3,2v0 C67.5,51.605,66.5,52.5,64.5,52.5z" />
    <path fill="#472b29" d="M64.5,53h-6c-2.583,0-3.5-1.347-3.5-2.5s0.917-2.5,3.5-2.5h6c2.583,0,3.5,1.347,3.5,2.5 S67.083,53,64.5,53z M58.5,49c-1.542,0-2.5,0.575-2.5,1.5s0.958,1.5,2.5,1.5h6c1.542,0,2.5-0.575,2.5-1.5S66.042,49,64.5,49H58.5z" />
  </g>
  <g>
    <path fill="#472b29" d="M36.5,51h-9c-0.276,0-0.5-0.224-0.5-0.5s0.224-0.5,0.5-0.5h9c0.276,0,0.5,0.224,0.5,0.5 S36.776,51,36.5,51z" />
  </g>
  <g>
    <path fill="#472b29" d="M43.5,45.75c-0.138,0-0.25-0.112-0.25-0.25v-6c0-0.138,0.112-0.25,0.25-0.25s0.25,0.112,0.25,0.25v6 C43.75,45.638,43.638,45.75,43.5,45.75z" />
  </g>
  <g>
    <path fill="#472b29" d="M43.5,37.75c-0.138,0-0.25-0.112-0.25-0.25v-5c0-0.138,0.112-0.25,0.25-0.25s0.25,0.112,0.25,0.25v5 C43.75,37.638,43.638,37.75,43.5,37.75z" />
  </g>
  <g>
    <path fill="#472b29" d="M59.5,52.75c-0.138,0-0.25-0.112-0.25-0.25v-2c0-0.138,0.112-0.25,0.25-0.25s0.25,0.112,0.25,0.25v2 C59.75,52.638,59.638,52.75,59.5,52.75z" />
  </g>
  <g>
    <path fill="#472b29" d="M63.5,52.75c-0.138,0-0.25-0.112-0.25-0.25v-2c0-0.138,0.112-0.25,0.25-0.25s0.25,0.112,0.25,0.25v2 C63.75,52.638,63.638,52.75,63.5,52.75z" />
  </g>
  <g>
    <path fill="#472b29" d="M43.5,60.75c-0.138,0-0.25-0.112-0.25-0.25v-5c0-0.138,0.112-0.25,0.25-0.25s0.25,0.112,0.25,0.25v5 C43.75,60.638,43.638,60.75,43.5,60.75z" />
  </g>
  <g>
    <path fill="#472b29" d="M43.5,74.75c-0.138,0-0.25-0.112-0.25-0.25v-11c0-0.138,0.112-0.25,0.25-0.25s0.25,0.112,0.25,0.25 v11C43.75,74.638,43.638,74.75,43.5,74.75z" />
  </g>
  <g>
    <path fill="#472b29" d="M43.5,30.75c-0.138,0-0.25-0.112-0.25-0.25v-4c0-0.138,0.112-0.25,0.25-0.25s0.25,0.112,0.25,0.25v4 C43.75,30.638,43.638,30.75,43.5,30.75z" />
  </g>
</svg>