<?xml version="1.0" encoding="utf-8"?>
<svg xmlns="http://www.w3.org/2000/svg" viewBox="0 0 100 100" width="500" height="500">
  <path fill="#c7ede6" d="M87.215,56.71C88.35,54.555,89,52.105,89,49.5c0-6.621-4.159-12.257-10.001-14.478 C78.999,35.015,79,35.008,79,35c0-11.598-9.402-21-21-21c-9.784,0-17.981,6.701-20.313,15.757C36.211,29.272,34.638,29,33,29 c-7.692,0-14.023,5.793-14.89,13.252C12.906,43.353,9,47.969,9,53.5C9,59.851,14.149,65,20.5,65c0.177,0,0.352-0.012,0.526-0.022 C21.022,65.153,21,65.324,21,65.5C21,76.822,30.178,86,41.5,86c6.437,0,12.175-2.972,15.934-7.614C59.612,80.611,62.64,82,66,82 c4.65,0,8.674-2.65,10.666-6.518C77.718,75.817,78.837,76,80,76c6.075,0,11-4.925,11-11C91,61.689,89.53,58.727,87.215,56.71z" />
  <path fill="#fdfcef" d="M29.875,42.5c0,0,3.64,0,6.125,0s4.5-2.015,4.5-4.5c0-2.333-1.782-4.229-4.055-4.455 C36.467,33.364,36.5,33.187,36.5,33c0-2.485-2.015-4.5-4.5-4.5c-1.438,0-2.703,0.686-3.527,1.736 C28.333,27.6,26.171,25.5,23.5,25.5c-2.761,0-5,2.239-5,5c0,0.446,0.077,0.87,0.187,1.282C18.045,31.005,17.086,30.5,16,30.5 c-1.781,0-3.234,1.335-3.455,3.055C12.364,33.533,12.187,33.5,12,33.5c-2.485,0-4.5,2.015-4.5,4.5s2.015,4.5,4.5,4.5s9.5,0,9.5,0 h5.375V43h3V42.5z" />
  <path fill="#472b29" d="M23.5,25c-3.033,0-5.5,2.467-5.5,5.5c0,0.016,0,0.031,0,0.047C17.398,30.192,16.71,30,16,30 c-1.831,0-3.411,1.261-3.858,3.005C12.095,33.002,12.048,33,12,33c-2.757,0-5,2.243-5,5s2.243,5,5,5h14.875 c0.276,0,0.5-0.224,0.5-0.5s-0.224-0.5-0.5-0.5H12c-2.206,0-4-1.794-4-4s1.794-4,4-4c0.117,0,0.23,0.017,0.343,0.032l0.141,0.019 c0.021,0.003,0.041,0.004,0.062,0.004c0.246,0,0.462-0.185,0.495-0.437C13.232,32.125,14.504,31,16,31 c0.885,0,1.723,0.401,2.301,1.1c0.098,0.118,0.241,0.182,0.386,0.182c0.078,0,0.156-0.018,0.228-0.056 c0.209-0.107,0.314-0.346,0.254-0.573C19.054,31.218,19,30.852,19,30.5c0-2.481,2.019-4.5,4.5-4.5 c2.381,0,4.347,1.872,4.474,4.263c0.011,0.208,0.15,0.387,0.349,0.45c0.05,0.016,0.101,0.024,0.152,0.024 c0.15,0,0.296-0.069,0.392-0.192C29.638,29.563,30.779,29,32,29c2.206,0,4,1.794,4,4c0,0.117-0.017,0.23-0.032,0.343l-0.019,0.141 c-0.016,0.134,0.022,0.268,0.106,0.373c0.084,0.105,0.207,0.172,0.34,0.185C38.451,34.247,40,35.949,40,38c0,2.206-1.794,4-4,4 h-6.125c-0.276,0-0.5,0.224-0.5,0.5s0.224,0.5,0.5,0.5H36c2.757,0,5-2.243,5-5c0-2.397-1.689-4.413-4.003-4.877 C36.999,33.082,37,33.041,37,33c0-2.757-2.243-5-5-5c-1.176,0-2.293,0.416-3.183,1.164C28.219,26.76,26.055,25,23.5,25L23.5,25z" />
  <path fill="#472b29" d="M22,32c-1.403,0-2.609,0.999-2.913,2.341C18.72,34.119,18.301,34,17.875,34 c-1.202,0-2.198,0.897-2.353,2.068C15.319,36.022,15.126,36,14.937,36c-1.529,0-2.811,1.2-2.918,2.732 C12.01,38.87,12.114,38.99,12.251,39c0.006,0,0.012,0,0.018,0c0.13,0,0.24-0.101,0.249-0.232c0.089-1.271,1.151-2.268,2.419-2.268 c0.229,0,0.47,0.042,0.738,0.127c0.022,0.007,0.045,0.01,0.067,0.01c0.055,0,0.11-0.02,0.156-0.054 C15.962,36.537,16,36.455,16,36.375c0-1.034,0.841-1.875,1.875-1.875c0.447,0,0.885,0.168,1.231,0.473 c0.047,0.041,0.106,0.063,0.165,0.063c0.032,0,0.063-0.006,0.093-0.019c0.088-0.035,0.148-0.117,0.155-0.212 C19.623,33.512,20.712,32.5,22,32.5c0.208,0,0.425,0.034,0.682,0.107c0.023,0.007,0.047,0.01,0.07,0.01 c0.109,0,0.207-0.073,0.239-0.182c0.038-0.133-0.039-0.271-0.172-0.309C22.517,32.04,22.256,32,22,32L22,32z" />
  <path fill="#472b29" d="M35.883,33.5c-1.326,0-2.508,0.897-2.874,2.182c-0.038,0.133,0.039,0.271,0.172,0.309 C33.205,35.997,33.228,36,33.25,36c0.109,0,0.209-0.072,0.24-0.182C33.795,34.748,34.779,34,35.883,34 c0.117,0,0.23,0.014,0.342,0.029c0.012,0.002,0.023,0.003,0.035,0.003c0.121,0,0.229-0.092,0.246-0.217 c0.019-0.137-0.077-0.263-0.214-0.281C36.158,33.516,36.022,33.5,35.883,33.5L35.883,33.5z" />
  <path fill="#fff" d="M74.405,32H64.5c-0.276,0-0.5-0.224-0.5-0.5s0.224-0.5,0.5-0.5h9.905c0.276,0,0.5,0.224,0.5,0.5 S74.682,32,74.405,32z" />
  <path fill="#fff" d="M77.5,32h-1c-0.276,0-0.5-0.224-0.5-0.5s0.224-0.5,0.5-0.5h1c0.276,0,0.5,0.224,0.5,0.5 S77.777,32,77.5,32z" />
  <path fill="#fff" d="M82.491,34H73.5c-0.276,0-0.5-0.224-0.5-0.5s0.224-0.5,0.5-0.5h8.991c0.276,0,0.5,0.224,0.5,0.5 S82.767,34,82.491,34z" />
  <path fill="#fff" d="M71.5,34h-1c-0.276,0-0.5-0.224-0.5-0.5s0.224-0.5,0.5-0.5h1c0.276,0,0.5,0.224,0.5,0.5 S71.777,34,71.5,34z" />
  <path fill="#fff" d="M68.5,34h-2c-0.276,0-0.5-0.224-0.5-0.5s0.224-0.5,0.5-0.5h2c0.276,0,0.5,0.224,0.5,0.5 S68.777,34,68.5,34z" />
  <path fill="#fff" d="M74.5,36h-2c-0.276,0-0.5-0.224-0.5-0.5s0.224-0.5,0.5-0.5h2c0.276,0,0.5,0.224,0.5,0.5 S74.776,36,74.5,36z" />
  <path fill="#fff" d="M77.5,27c-0.177,0-0.823,0-1,0c-0.276,0-0.5,0.224-0.5,0.5c0,0.276,0.224,0.5,0.5,0.5 c0.177,0,0.823,0,1,0c0.276,0,0.5-0.224,0.5-0.5C78,27.224,77.776,27,77.5,27z" />
  <path fill="#fff" d="M77.5,29c-0.177,0-4.823,0-5,0c-0.276,0-0.5,0.224-0.5,0.5c0,0.276,0.224,0.5,0.5,0.5 c0.177,0,4.823,0,5,0c0.276,0,0.5-0.224,0.5-0.5C78,29.224,77.776,29,77.5,29z" />
  <path fill="#fff" d="M82.5,31c-0.177,0-2.823,0-3,0c-0.276,0-0.5,0.224-0.5,0.5c0,0.276,0.224,0.5,0.5,0.5 c0.177,0,2.823,0,3,0c0.276,0,0.5-0.224,0.5-0.5C83,31.224,82.776,31,82.5,31z" />
  <g>
    <path fill="#fff" d="M28.5,72h-10c-0.276,0-0.5-0.224-0.5-0.5s0.224-0.5,0.5-0.5h10c0.276,0,0.5,0.224,0.5,0.5 S28.776,72,28.5,72z" />
    <path fill="#fff" d="M32.5,72h-2c-0.276,0-0.5-0.224-0.5-0.5s0.224-0.5,0.5-0.5h2c0.276,0,0.5,0.224,0.5,0.5 S32.776,72,32.5,72z" />
    <path fill="#fff" d="M37.5,74h-10c-0.276,0-0.5-0.224-0.5-0.5s0.224-0.5,0.5-0.5h10c0.276,0,0.5,0.224,0.5,0.5 S37.777,74,37.5,74z" />
    <path fill="#fff" d="M25.5,74h-1c-0.276,0-0.5-0.224-0.5-0.5s0.224-0.5,0.5-0.5h1c0.276,0,0.5,0.224,0.5,0.5 S25.776,74,25.5,74z" />
    <path fill="#fff" d="M22.47,74H20.5c-0.276,0-0.5-0.224-0.5-0.5s0.224-0.5,0.5-0.5h1.97c0.276,0,0.5,0.224,0.5,0.5 S22.746,74,22.47,74z" />
    <path fill="#fff" d="M31.5,70h-5c-0.276,0-0.5-0.224-0.5-0.5s0.224-0.5,0.5-0.5h5c0.276,0,0.5,0.224,0.5,0.5 S31.777,70,31.5,70z" />
    <path fill="#fff" d="M28.5,76h-2c-0.276,0-0.5-0.224-0.5-0.5s0.224-0.5,0.5-0.5h2c0.276,0,0.5,0.224,0.5,0.5 S28.776,76,28.5,76z" />
  </g>
  <g>
    <path fill="#fdfcef" d="M69.5,74.5c0,0-1.567,0-3.5,0s-3.5-1.567-3.5-3.5c0-1.781,1.335-3.234,3.055-3.455 C65.527,67.366,65.5,67.187,65.5,67c0-1.933,1.567-3.5,3.5-3.5c1.032,0,1.95,0.455,2.59,1.165c0.384-1.808,1.987-3.165,3.91-3.165 c2.209,0,4,1.791,4,4c0,0.191-0.03,0.374-0.056,0.558C79.872,65.714,80.408,65.5,81,65.5c1.228,0,2.245,0.887,2.455,2.055 C83.634,67.527,83.813,67.5,84,67.5c1.933,0,3.5,1.567,3.5,3.5s-1.567,3.5-3.5,3.5s-7.5,0-7.5,0V75h-7V74.5z" />
    <path fill="#472b29" d="M67.75,70c0.138,0,0.25-0.112,0.25-0.25c0-1.223-0.995-2.218-2.218-2.218 c-0.034,0.009-0.737-0.001-1.244,0.136c-0.133,0.036-0.212,0.173-0.176,0.306c0.036,0.134,0.173,0.213,0.306,0.176 c0.444-0.12,1.1-0.12,1.113-0.118c0.948,0,1.719,0.771,1.719,1.718C67.5,69.888,67.612,70,67.75,70z" />
    <circle cx="74.5" cy="74.5" r=".5" fill="#472b29" />
    <path fill="#472b29" d="M66,75h3.5c0.276,0,0.5-0.224,0.5-0.5S69.776,74,69.5,74H66c-1.654,0-3-1.346-3-3 c0-1.496,1.125-2.768,2.618-2.959c0.134-0.018,0.255-0.088,0.336-0.196s0.115-0.244,0.094-0.377C66.025,67.314,66,67.16,66,67 c0-1.654,1.346-3,3-3c0.85,0,1.638,0.355,2.219,1c0.125,0.139,0.321,0.198,0.5,0.148c0.182-0.049,0.321-0.195,0.36-0.379 C72.42,63.165,73.859,62,75.5,62c1.93,0,3.5,1.57,3.5,3.5c0,0.143-0.021,0.28-0.041,0.418c-0.029,0.203,0.063,0.438,0.242,0.54 c0.179,0.102,0.396,0.118,0.556-0.01C80.122,66.155,80.551,66,81,66c0.966,0,1.792,0.691,1.963,1.644 c0.048,0.267,0.296,0.446,0.569,0.405C83.686,68.025,83.84,68,84,68c1.654,0,3,1.346,3,3s-1.346,3-3,3h-7.5 c-0.276,0-0.5,0.224-0.5,0.5s0.224,0.5,0.5,0.5H84c2.206,0,4-1.794,4-4s-1.794-4-4-4c-0.059,0-0.116,0.002-0.174,0.006 C83.412,65.82,82.289,65,81,65c-0.349,0-0.689,0.061-1.011,0.18C79.824,62.847,77.874,61,75.5,61 c-1.831,0-3.466,1.127-4.153,2.774C70.667,63.276,69.845,63,69,63c-2.206,0-4,1.794-4,4c0,0.048,0.001,0.095,0.004,0.142 C63.261,67.59,62,69.169,62,71C62,73.206,63.794,75,66,75z" />
    <path fill="#472b29" d="M71.5,74c0.159,0,0.841,0,1,0c0.276,0,0.5,0.224,0.5,0.5c0,0.276-0.224,0.5-0.5,0.5 c-0.159,0-0.841,0-1,0c-0.276,0-0.5-0.224-0.5-0.5C71,74.224,71.224,74,71.5,74z" />
  </g>
  <g>
    <path fill="#6f913d" d="M57.5,67.5h-11v2h11c0.552,0,1-0.448,1-1l0,0C58.5,67.948,58.052,67.5,57.5,67.5z" />
    <path fill="#472b29" d="M57.5,70h-11c-0.276,0-0.5-0.224-0.5-0.5v-2c0-0.276,0.224-0.5,0.5-0.5h11 c0.827,0,1.5,0.673,1.5,1.5S58.327,70,57.5,70z M47,69h10.5c0.275,0,0.5-0.224,0.5-0.5S57.775,68,57.5,68H47V69z" />
    <path fill="#6f913d" d="M60.5,60.5h-11v2h11c0.552,0,1-0.448,1-1l0,0C61.5,60.948,61.052,60.5,60.5,60.5z" />
    <path fill="#472b29" d="M60.5,63h-11c-0.276,0-0.5-0.224-0.5-0.5v-2c0-0.276,0.224-0.5,0.5-0.5h11 c0.827,0,1.5,0.673,1.5,1.5S61.327,63,60.5,63z M50,62h10.5c0.275,0,0.5-0.224,0.5-0.5S60.775,61,60.5,61H50V62z" />
    <polygon fill="#88ae45" points="42.7,76.3 42.7,54.7 61.708,54.7 47.621,76.3" />
    <path fill="#472b29" d="M60.416,55.4L47.242,75.6H43.4V55.4H60.416 M63,54H42v23h6L63,54L63,54z" />
    <path fill="#88ae45" d="M53.5,74.5h-11v2h11c0.552,0,1-0.448,1-1l0,0C54.5,74.948,54.052,74.5,53.5,74.5z" />
    <path fill="#472b29" d="M53.5,77h-11c-0.276,0-0.5-0.224-0.5-0.5v-2c0-0.276,0.224-0.5,0.5-0.5h11 c0.827,0,1.5,0.673,1.5,1.5S54.327,77,53.5,77z M43,76h10.5c0.275,0,0.5-0.224,0.5-0.5S53.775,75,53.5,75H43V76z" />
    <path fill="#472b29" d="M45.5,60.75c-0.138,0-0.25-0.112-0.25-0.25v-5c0-0.138,0.112-0.25,0.25-0.25s0.25,0.112,0.25,0.25 v5C45.75,60.638,45.638,60.75,45.5,60.75z" />
    <path fill="#472b29" d="M45.5,74.75c-0.138,0-0.25-0.112-0.25-0.25v-11c0-0.138,0.112-0.25,0.25-0.25s0.25,0.112,0.25,0.25 v11C45.75,74.638,45.638,74.75,45.5,74.75z" />
    <path fill="#6f913d" d="M57.5,35.5h-11v-2h11c0.552,0,1,0.448,1,1l0,0C58.5,35.052,58.052,35.5,57.5,35.5z" />
    <path fill="#472b29" d="M57.5,36h-11c-0.276,0-0.5-0.224-0.5-0.5v-2c0-0.276,0.224-0.5,0.5-0.5h11 c0.827,0,1.5,0.673,1.5,1.5S58.327,36,57.5,36z M47,35h10.5c0.275,0,0.5-0.224,0.5-0.5S57.775,34,57.5,34H47V35z" />
    <path fill="#6f913d" d="M60.5,42.5h-11v-2h11c0.552,0,1,0.448,1,1l0,0C61.5,42.052,61.052,42.5,60.5,42.5z" />
    <path fill="#472b29" d="M60.5,43h-11c-0.276,0-0.5-0.224-0.5-0.5v-2c0-0.276,0.224-0.5,0.5-0.5h11 c0.827,0,1.5,0.673,1.5,1.5S61.327,43,60.5,43z M50,42h10.5c0.275,0,0.5-0.224,0.5-0.5S60.775,41,60.5,41H50V42z" />
    <polygon fill="#88ae45" points="42.7,48.3 42.7,26.7 47.621,26.7 61.708,48.3" />
    <path fill="#472b29" d="M47.242,27.4l13.174,20.2H43.4V27.4H47.242 M48,26h-6v23h21L48,26L48,26z" />
    <path fill="#88ae45" d="M53.5,28.5h-11v-2h11c0.552,0,1,0.448,1,1v0C54.5,28.052,54.052,28.5,53.5,28.5z" />
    <path fill="#472b29" d="M53.5,29h-11c-0.276,0-0.5-0.224-0.5-0.5v-2c0-0.276,0.224-0.5,0.5-0.5h11 c0.827,0,1.5,0.673,1.5,1.5S54.327,29,53.5,29z M43,28h10.5c0.275,0,0.5-0.224,0.5-0.5S53.775,27,53.5,27H43V28z" />
    <path fill="#472b29" d="M45.5,47.75c-0.138,0-0.25-0.112-0.25-0.25v-6c0-0.138,0.112-0.25,0.25-0.25s0.25,0.112,0.25,0.25 v6C45.75,47.638,45.638,47.75,45.5,47.75z" />
    <path fill="#472b29" d="M45.5,39.75c-0.138,0-0.25-0.112-0.25-0.25v-5c0-0.138,0.112-0.25,0.25-0.25s0.25,0.112,0.25,0.25 v5C45.75,39.638,45.638,39.75,45.5,39.75z" />
    <g>
      <path fill="#472b29" d="M45.5,32.75c-0.138,0-0.25-0.112-0.25-0.25v-4c0-0.138,0.112-0.25,0.25-0.25s0.25,0.112,0.25,0.25 v4C45.75,32.638,45.638,32.75,45.5,32.75z" />
    </g>
    <g>
      <polygon fill="#88ae45" points="29.7,63.3 29.7,53.7 37.913,53.7 33.549,63.3" />
      <path fill="#472b29" d="M36.826,54.4l-3.727,8.2H30.4v-8.2H36.826 M39,53H29v11h5L39,53L39,53z" />
    </g>
    <g>
      <polygon fill="#88ae45" points="29.7,49.3 29.7,39.7 33.549,39.7 37.913,49.3" />
      <path fill="#472b29" d="M33.099,40.4l3.727,8.2H30.4v-8.2H33.099 M34,39h-5v11h10L34,39L34,39z" />
    </g>
    <g>
      <path fill="#d1dc82" d="M66.015,56.3H39.667L30.7,55.369V47.63l8.791-0.934L66,46.7c5.598,0,10.25,1.732,16.3,4.733v0.168 c-5.178,3.036-10.771,4.704-15.793,4.704C66.343,56.305,66.179,56.304,66.015,56.3z" />
      <path fill="#472b29" d="M66,47.4c5.142,0,9.496,1.512,14.96,4.156c-4.789,2.619-9.871,4.049-14.453,4.049 c-0.159,0-0.318-0.002-0.507-0.005H39.739L31.4,54.737v-6.478l8.091-0.859H66 M66,46H39.417L30,47v9l9.667,1H66 c0.169,0.003,0.337,0.005,0.507,0.005c5.816,0,11.635-2.09,16.493-5.005v-1C77,48,72,46,66,46L66,46z" />
    </g>
    <g>
      <path fill="#78a0cf" d="M66.5,53.5h-6c-2,0-3-0.895-3-2v0c0-1.105,1-2,3-2h6c2,0,3,0.895,3,2v0 C69.5,52.605,68.5,53.5,66.5,53.5z" />
      <path fill="#472b29" d="M66.5,54h-6c-2.583,0-3.5-1.347-3.5-2.5s0.917-2.5,3.5-2.5h6c2.583,0,3.5,1.347,3.5,2.5 S69.083,54,66.5,54z M60.5,50c-1.542,0-2.5,0.575-2.5,1.5s0.958,1.5,2.5,1.5h6c1.542,0,2.5-0.575,2.5-1.5S68.042,50,66.5,50H60.5z" />
    </g>
    <g>
      <path fill="#472b29" d="M38.5,52h-9c-0.276,0-0.5-0.224-0.5-0.5s0.224-0.5,0.5-0.5h9c0.276,0,0.5,0.224,0.5,0.5 S38.776,52,38.5,52z" />
    </g>
    <g>
      <path fill="#472b29" d="M61.5,53.75c-0.138,0-0.25-0.112-0.25-0.25v-2c0-0.138,0.112-0.25,0.25-0.25s0.25,0.112,0.25,0.25 v2C61.75,53.638,61.638,53.75,61.5,53.75z" />
    </g>
    <g>
      <path fill="#472b29" d="M65.5,53.75c-0.138,0-0.25-0.112-0.25-0.25v-2c0-0.138,0.112-0.25,0.25-0.25s0.25,0.112,0.25,0.25 v2C65.75,53.638,65.638,53.75,65.5,53.75z" />
    </g>
  </g>
</svg>