<?xml version="1.0" encoding="utf-8"?>
<svg xmlns="http://www.w3.org/2000/svg" viewBox="0 0 48 48" width="480" height="480">
  <path fill="#373837" d="M22.332,11.478c2.616-0.016,5.811,0.073,8.427,0.057c0.444-0.003,0.913,0.001,1.294,0.228 c0.381,0.227,0.616,0.762,0.368,1.13c-0.153,0.226-0.433,0.324-0.698,0.39c-1.105,0.274-2.261,0.237-3.399,0.199 c-1.067-0.036-2.383,0.136-3.45,0.1" />
  <path fill="#373837" d="M15.839,5.679c3.046-0.026,4.756-0.05,7.802-0.076c0.346-0.003,0.738,0.013,0.967,0.273 c0.281,0.318,0.141,0.852-0.181,1.128c-0.322,0.276-0.763,0.358-1.182,0.421c-2.04,0.306-3.012,0.384-5.069,0.232" />
  <path fill="#2b8c5e" d="M33.653,20.356C26.715,16.618,21.583,8.435,15.984,3.031c-1.462-1.411-3.887,0.727-3.488,2.719 c0.886,4.422,0.389,10.338,0.24,13.618L33.653,20.356z" />
  <path fill="#2b8c5e" d="M13.411,43.166c-0.09,1.939,2.064,3.194,3.235,1.647c5.278-6.979,10.172-12.974,16.409-17.59 L13.5,27.563C13.765,32.247,13.636,38.321,13.411,43.166z" />
  <path fill="#373837" d="M25.165,34.405c1.815-0.099,3.639,0.017,5.433,0.344c0.423,0.077,0.916,0.232,1.058,0.687 c0.124,0.4-0.112,0.851-0.44,1.058c-0.328,0.207-0.72,0.227-1.096,0.227c-2.307,0.005-4.651-0.51-6.899,0.073" />
  <path fill="#373837" d="M20.376,40.558c1.848-0.012,3.2-0.025,5.048-0.037c0.445-0.003,0.975,0.029,1.199,0.323 c0.266,0.349-0.114,0.786-0.546,1.018c-1.138,0.612-2.636,0.612-4.026,0.589c-1.542-0.025-2.587-0.051-4.129-0.076" />
  <path fill="#38b47b" d="M13.261,27.78c-0.84,0.037-2.83-0.182-3.67-0.158c-1.55,0.045-2.676,1.57-3.583,2.828 c-0.483,0.67-0.444,0.548-1.01,1.151c-0.723,0.77-2.582,0.749-2.456-0.299l2.262-7.8c0,0-2.01-6.64-2.207-7.404 c-0.021-0.083-0.04-0.183-0.057-0.294c-0.147-0.988,1.793-0.668,2.562-0.029c1.554,1.292,2.951,2.421,4.116,3.484 c8.006,0.385,17.41,0.716,25.415,1.102c3.418,0.164,6.063,0.446,9.39,1.246c1.067,0.257,3.017,1.644,3.557,2.599 c-3.385,2.567-11.904,2.934-14.044,3.193c-1.457,0.177-4.38-0.195-5.848-0.177C22.07,27.292,18.916,27.529,13.261,27.78z" />
  <path fill="#73a1b2" d="M38.58,22.699c-0.701-0.027-1.111-0.151-1.807-0.22c-0.675-0.067-1.368-0.133-2.029-0.01 c-0.661,0.124-1.293,0.482-1.448,0.992c-0.019,0.062-0.03,0.129-0.003,0.189c0.043,0.093,0.165,0.148,0.279,0.192 c1.294,0.507,2.748,0.771,4.2,0.762c0.559-0.003,1.147-0.054,1.603-0.303s0.721-0.749,0.451-1.126 C39.549,22.786,39.157,22.721,38.58,22.699z" />
  <path fill="#010101" d="M37.704,25.104c-1.492,0-2.981-0.274-4.313-0.796c-0.137-0.054-0.42-0.165-0.551-0.448 c-0.076-0.167-0.082-0.35-0.021-0.546c0.234-0.775,1.101-1.199,1.833-1.336c0.741-0.141,1.5-0.064,2.171,0.004 c0.296,0.029,0.543,0.068,0.781,0.105c0.311,0.05,0.605,0.097,0.995,0.111H38.6c0.595,0.023,1.212,0.096,1.634,0.686 c0.183,0.255,0.244,0.567,0.173,0.878c-0.09,0.391-0.385,0.757-0.791,0.978c-0.579,0.315-1.287,0.36-1.838,0.364 C37.752,25.104,37.728,25.104,37.704,25.104z M33.886,23.421c1.257,0.466,2.561,0.664,3.885,0.683 c0.435-0.003,0.982-0.033,1.366-0.242c0.174-0.095,0.273-0.23,0.295-0.322c-0.133-0.243-0.279-0.318-0.871-0.341 c-0.442-0.017-0.783-0.071-1.113-0.123c-0.22-0.035-0.449-0.072-0.724-0.1c-0.632-0.063-1.287-0.127-1.887-0.016 C34.426,23.037,34.066,23.217,33.886,23.421z" />
  <path fill="#2b8c5e" d="M8.504,24.558c-2.809-0.318-5.135-0.606-7.92-1.089c0.944-0.473,2.042-0.561,3.09-0.688 c1.636-0.199,3.198-0.298,4.842-0.401C8.516,22.379,11.006,23.387,8.504,24.558z" />
  <path fill="#010101" d="M48.01,23.96c-0.64-1.14-2.72-2.56-3.87-2.84c-3.48-0.84-6.21-1.1-9.48-1.26 c-0.307-0.015-0.629-0.029-0.941-0.043c-2.578-1.426-4.912-3.487-7.122-5.785c0.011,0,0.022-0.001,0.033-0.002 c0.57-0.03,1.17-0.07,1.68-0.05c1.16,0.04,2.35,0.08,3.53-0.21c0.33-0.08,0.74-0.22,1-0.6c0.17-0.25,0.22-0.57,0.15-0.9 c-0.08-0.38-0.34-0.73-0.68-0.94c-0.51-0.3-1.09-0.3-1.55-0.29c-1.31,0-2.76-0.02-4.21-0.03c-0.924-0.016-1.844-0.024-2.735-0.027 c-0.626-0.716-1.248-1.435-1.865-2.153c-0.193-0.225-0.382-0.443-0.574-0.665c0.572-0.05,1.186-0.129,1.944-0.245 c0.47-0.07,1.01-0.18,1.43-0.54c0.29-0.24,0.48-0.61,0.51-0.99c0.02-0.32-0.08-0.62-0.28-0.85C24.59,5.1,23.97,5.1,23.64,5.1 l-4.924,0.053c-0.789-0.865-1.579-1.701-2.386-2.483c-0.71-0.68-1.68-0.78-2.61-0.28c-1.05,0.58-2.01,1.98-1.71,3.46 c0.75,3.76,0.48,8.73,0.3,12.02c-0.021,0.362-0.036,0.703-0.05,1.031c-0.961-0.043-1.91-0.087-2.84-0.131 c-0.91-0.83-1.97-1.7-3.09-2.63l-0.91-0.75c-0.7-0.58-2.15-0.95-2.89-0.54c-0.37,0.21-0.55,0.59-0.49,1.03 c0.02,0.13,0.05,0.24,0.07,0.34c0.147,0.551,1.195,4.031,1.791,6.022c-1.221,0.126-2.434,0.311-3.57,0.795 c-0.386,0.165-0.287,0.845,0.119,0.914c1.179,0.201,2.361,0.374,3.545,0.538L2.05,31.24c-0.07,0.53,0.19,0.99,0.69,1.23 c0.25,0.11,0.55,0.17,0.85,0.17c0.66,0,1.36-0.26,1.77-0.7c0.17-0.18,0.29-0.29,0.37-0.38c0.24-0.24,0.34-0.35,0.68-0.82 c0.79-1.09,1.86-2.58,3.2-2.62c0.38-0.01,1.05,0.04,1.71,0.08c0.612,0.04,1.242,0.079,1.711,0.08c0.108,2.34,0.128,4.89,0.109,7.3 v0.06c-0.04,2.95-0.15,5.65-0.23,7.5c-0.06,1.23,0.65,2.35,1.72,2.74c0.24,0.08,0.48,0.13,0.72,0.13c0.64,0,1.26-0.32,1.69-0.9 c0.558-0.737,1.124-1.478,1.696-2.219l3.304,0.059c0.23,0.01,0.47,0.01,0.72,0.01c1.14,0,2.49-0.08,3.55-0.66 c0.47-0.25,0.8-0.63,0.88-1.01c0.06-0.26,0-0.53-0.17-0.75c-0.36-0.47-1.02-0.51-1.6-0.52l-4.448,0.035 c0.751-0.933,1.522-1.856,2.306-2.77c0.023-0.001,0.044,0,0.072-0.006c1.44-0.38,2.93-0.27,4.5-0.16c0.73,0.05,1.49,0.1,2.24,0.1 c0.44,0,0.94-0.02,1.39-0.3c0.47-0.3,0.86-0.97,0.65-1.63c-0.25-0.82-1.15-0.98-1.44-1.03c-1.436-0.267-2.894-0.384-4.343-0.376 c2.052-2.144,4.24-4.154,6.599-5.944c0.233-0.007,0.459-0.017,0.654-0.04c0.31-0.04,0.76-0.08,1.32-0.13 c3.23-0.29,9.96-0.89,12.96-3.17C48.08,24.45,48.14,24.18,48.01,23.96z M26.54,12.01c1.46,0.01,2.91,0.03,4.22,0.03 c0.36,0,0.77-0.01,1.04,0.15c0.1,0.06,0.19,0.19,0.22,0.3c0,0.04,0.01,0.09-0.01,0.12c-0.07,0.1-0.32,0.17-0.41,0.19 c-1.04,0.26-2.17,0.22-3.26,0.18c-0.56-0.02-1.17,0.02-1.77,0.05c-0.289,0.022-0.585,0.038-0.875,0.048 c-0.332-0.359-0.664-0.716-0.991-1.082C25.314,11.999,25.923,12.003,26.54,12.01z M23.65,6.1c0.14,0,0.49,0,0.58,0.11 c0.03,0.03,0.03,0.07,0.03,0.11c-0.01,0.11-0.07,0.23-0.16,0.3c-0.22,0.19-0.58,0.26-0.93,0.31 c-1.069,0.157-1.837,0.25-2.616,0.284c-0.317-0.364-0.631-0.717-0.945-1.071L23.65,6.1z M14.2,3.27c0.31-0.17,0.92-0.38,1.44,0.12 c1.87,1.8,3.65,3.89,5.55,6.1c3.238,3.762,6.57,7.62,10.475,10.233c-3.158-0.141-6.468-0.277-9.775-0.413 c-1.671-0.07-3.334-0.139-4.983-0.208c-0.026-0.119-0.037-0.257-0.037-0.392l-0.18-5.73c0-0.17-0.01-0.39-0.13-0.61 c-0.27-0.52-0.89-0.58-1.09-0.6c-0.66-0.07-1.32-0.05-1.96,0.06c-0.01-2.11-0.14-4.28-0.52-6.18C12.79,4.68,13.45,3.68,14.2,3.27z M13.31,17.92c0.08-1.45,0.18-3.22,0.19-5.08c0.62-0.11,1.24-0.14,1.87-0.08c0.24,0.03,0.3,0.07,0.31,0.07 c0.01,0.03,0.01,0.12,0.01,0.18l0.18,5.73c0,0.096,0.004,0.205,0.015,0.319c-0.885-0.037-1.757-0.075-2.625-0.113 C13.274,18.621,13.29,18.282,13.31,17.92z M6.692,22.999c0.479-0.035,1.264-0.253,1.702-0.129c0.786,0.223,0.498,0.832-0.013,1.173 c-1.819-0.208-3.632-0.45-5.441-0.719C4.186,23.121,5.492,23.086,6.692,22.999z M15.811,28.161l0.259,3.359 c0.08,1.17,0.19,2.49-0.22,3.63c-0.04,0.11-0.08,0.17-0.08,0.18c-0.02,0-0.06-0.01-0.09-0.01c-0.22-0.03-0.42-0.07-0.61-0.11 c-0.29-0.06-0.59-0.12-0.93-0.13c0.019-2.267-0.009-4.639-0.109-6.834C14.651,28.217,15.244,28.189,15.811,28.161z M20.38,41.06 l5.05-0.04h0.05c0.58,0,0.71,0.09,0.73,0.07c-0.02,0.06-0.14,0.21-0.37,0.33c-0.99,0.53-2.3,0.56-3.78,0.53l-2.556-0.04 c0.23-0.295,0.461-0.589,0.694-0.883C20.254,41.048,20.315,41.06,20.38,41.06z M30.51,35.24c0.6,0.11,0.65,0.29,0.67,0.34 c0.05,0.17-0.08,0.4-0.23,0.49c-0.22,0.14-0.53,0.15-0.83,0.15c-0.73,0.04-1.47-0.05-2.2-0.1c-1.189-0.083-2.41-0.158-3.622-0.012 c0.364-0.41,0.737-0.81,1.109-1.213C27.115,34.824,28.831,34.933,30.51,35.24z M16.25,44.51c-0.46,0.61-1,0.53-1.28,0.43 c-0.56-0.2-1.1-0.87-1.06-1.75c0.08-1.76,0.18-4.32,0.22-7.12c0.24,0.01,0.48,0.06,0.74,0.12c0.21,0.04,0.43,0.09,0.67,0.12 c0.07,0.01,0.16,0.02,0.25,0.02c0.07,0,0.15-0.01,0.22-0.02c0.35-0.09,0.61-0.36,0.78-0.82c0.48-1.34,0.37-2.78,0.27-4.04 l-0.247-3.337c0.234-0.011,0.469-0.023,0.697-0.033c3.43-0.17,6.13-0.31,10.18-0.36c0.56,0.01,1.36,0.05,2.2,0.1 c0.498,0.037,0.997,0.068,1.484,0.093C25.456,32.63,20.655,38.672,16.25,44.51z M34.83,26.77c-0.57,0.05-1.03,0.09-1.35,0.13 c-0.84,0.1-2.27,0.01-3.53-0.07c-0.86-0.06-1.67-0.12-2.27-0.11c-4.07,0.05-6.92,0.19-10.22,0.36c-1.28,0.06-2.66,0.13-4.22,0.2 c-0.41,0.02-1.15-0.03-1.86-0.08c-0.71-0.05-1.37-0.09-1.8-0.08c-1.83,0.05-3.07,1.78-3.98,3.04c-0.31,0.43-0.37,0.5-0.57,0.69 c-0.1,0.1-0.22,0.22-0.4,0.41c-0.34,0.36-1.1,0.47-1.46,0.3c-0.14-0.06-0.14-0.12-0.15-0.12l1.975-6.815 c1.168,0.154,2.337,0.299,3.508,0.433c0.179,0.02,0.302-0.047,0.38-0.151c1.282-0.766,1.757-2.208,0.015-2.9 c-1.011-0.401-2.641,0.016-3.709,0.114c-0.091,0.008-0.183,0.017-0.275,0.026c-0.584-1.948-1.697-5.626-1.835-6.176 c-0.02-0.07-0.03-0.15-0.07-0.24c0.18-0.15,1.24-0.01,1.77,0.43l0.91,0.75c1.16,0.97,2.27,1.88,3.19,2.72 c0.09,0.08,0.2,0.12,0.31,0.13c3.99,0.19,8.32,0.37,12.66,0.55c4.37,0.18,8.74,0.36,12.76,0.55c3.21,0.15,5.89,0.42,9.3,1.23 c0.83,0.2,2.28,1.21,2.97,1.99C43.92,25.96,37.83,26.5,34.83,26.77z" />
</svg>