<?xml version="1.0" encoding="utf-8"?>
<svg xmlns="http://www.w3.org/2000/svg" viewBox="0 0 64 64" width="512" height="512">
  <path d="M19 6L19 8L19 26.25L15.203125 27.199219L7.0566406 19L5 19L4 20L4 26L7.8085938 29.046875L4 30L4 32L4 34L7.8085938 34.953125L4 38L4 44L5 45L7.0566406 45L15.203125 36.800781L19 37.75L19 56L19 58L25.332031 58C25.999031 58 28 57 28 57C28 57 25.999031 56 25.332031 56L24 56L30.158203 47L35 47C36 47 39 45.5 39 45.5C39 45.5 36 44 35 44L32.210938 44L27 44L27 42L34.0625 41.294922L36.316406 38L39 38L48.220703 36C57.000703 36 62 32 62 32C62 32 57.000703 28 48.220703 28L39 26L36.316406 26L34.0625 22.705078L27 22L27 20L32.210938 20L35 20C36 20 39 18.5 39 18.5C39 18.5 36 17 35 17L30.158203 17L24 8L25.332031 8C25.999031 8 28 7 28 7C28 7 25.999031 6 25.332031 6L19 6 z M 47.769531 30C49.462531 30 52 31 52 31L52 33C52 33 49.462531 34 47.769531 34C46.077531 34 41 33 41 33L41 31C41 31 46.077531 30 47.769531 30 z" fill="#FFFFFF" />
</svg>